<svg width="112" height="127" viewBox="0 0 112 127" fill="none" xmlns="http://www.w3.org/2000/svg">
    <path fill="url(#gradient-fill)" d="M56.3086 126.756C54.9693 126.755 53.6544 126.402 52.4951 125.731L4.63281 98.1082C3.47749 97.4377 2.51826 96.4756 1.85156 95.3181C1.18366 94.1607 0.831176 92.8483 0.828125 91.512L0.836914 36.2449C0.836598 34.9091 1.18657 33.5971 1.85254 32.4392C2.519 31.2818 3.47831 30.3199 4.63379 29.6501L52.4961 2.01392C53.6576 1.34963 54.9716 0.999341 56.3096 0.997803C57.6449 1.00022 58.9573 1.3505 60.1162 2.01392L107.978 29.6501C109.133 30.319 110.095 31.2772 110.768 32.4309C111.429 33.593 111.78 34.9065 111.785 36.2439L111.776 91.511C111.78 92.8442 111.432 94.1548 110.768 95.3108C110.096 96.467 109.134 97.4282 107.978 98.0999L60.1162 125.732C58.9591 126.402 57.6455 126.755 56.3086 126.756V126.756ZM56.3408 14.3401C55.003 14.3404 53.6889 14.6907 52.5283 15.3562L16.0908 36.3928C14.9327 37.0574 13.9725 38.0189 13.3096 39.178C12.6417 40.3337 12.2865 41.643 12.2773 42.9778L12.2041 84.8679C12.2075 86.2084 12.5575 87.5253 13.2207 88.6902C13.8958 89.8503 14.8604 90.8149 16.0205 91.49L52.3369 112.364C53.4906 113.025 54.7973 113.372 56.127 113.372C57.4665 113.375 58.7831 113.021 59.9404 112.347L96.3779 91.3191C97.5303 90.6492 98.4887 89.6905 99.1582 88.5378C99.8252 87.3818 100.181 86.0727 100.19 84.738L100.207 72.2478L100.264 42.8562C100.26 41.5132 99.9105 40.1938 99.2471 39.0261C98.5664 37.8678 97.5972 36.9054 96.4346 36.2322L60.126 15.3621C58.9752 14.6933 57.6679 14.3408 56.3369 14.3401H56.3408ZM56.251 98.989C54.9175 98.9868 53.6078 98.6365 52.4512 97.9729L50.084 96.6028V70.0691L62.9727 66.8201V86.6951L76.2861 79.0872V39.1062L83.9131 43.5061C85.0738 44.1695 86.0347 45.1333 86.6943 46.2961C87.3691 47.4522 87.7245 48.7666 87.7256 50.1052L87.7178 77.615C87.7152 78.9523 87.3627 80.2657 86.6943 81.4241C86.023 82.5787 85.0611 83.5372 83.9043 84.2048L60.0615 97.9758C58.905 98.6397 57.5953 98.99 56.2617 98.9919L56.251 98.989ZM36.751 88.9192L28.6104 84.219C27.4548 83.5469 26.494 82.5857 25.8223 81.4299C25.1534 80.2729 24.7999 78.9602 24.7979 77.6238L24.8145 50.1111C24.8169 48.7775 25.1671 47.4673 25.8311 46.3108C26.5025 45.1516 27.4636 44.187 28.6201 43.511L52.4697 29.7522C53.6233 29.0807 54.9347 28.7286 56.2695 28.7322C57.6079 28.7282 58.924 29.0784 60.083 29.7478L62.9697 31.407V53.906L50.0811 56.9441V41.5188L36.7539 49.134L36.751 88.9192Z"/>
    <defs>
        <linearGradient id="gradient-fill" gradientUnits="userSpaceOnUse" gradientTransform="rotate(45)">
            <stop offset="15%" stop-color="#26b6d4" />
            <stop offset="65%" stop-color="#1356de" />
        </linearGradient>
    </defs>
</svg>